<svg width="517" height="465" viewBox="0 0 517 465" fill="none" xmlns="http://www.w3.org/2000/svg">
<g clip-path="url(#clip0_1_246)">
<path d="M73.8152 189.059C88.1938 189.059 102.25 184.796 114.205 176.807C126.16 168.819 135.479 157.465 140.981 144.181C146.484 130.896 147.923 116.279 145.118 102.176C142.313 88.0741 135.389 75.1202 125.222 64.953C115.054 54.7857 102.101 47.8617 87.9982 45.0566C73.8958 42.2515 59.2783 43.6912 45.9942 49.1936C32.71 54.6961 21.3558 64.0142 13.3675 75.9697C5.37913 87.9251 1.11536 101.981 1.11536 116.36C1.11536 135.641 8.77478 154.132 22.4086 167.766C36.0425 181.4 54.534 189.059 73.8152 189.059Z" fill="#FEB273"/>
<path d="M204.545 464.323L139.813 415.056C139.339 414.7 138.968 414.225 138.737 413.68C138.507 413.134 138.425 412.537 138.499 411.949C138.574 411.361 138.803 410.804 139.163 410.333C139.524 409.863 140.002 409.496 140.55 409.27L187.546 389.482L253.862 439.953C254.335 440.309 254.707 440.784 254.937 441.33C255.168 441.876 255.25 442.473 255.175 443.061C255.1 443.648 254.871 444.206 254.511 444.676C254.151 445.147 253.673 445.514 253.125 445.74L207.971 464.791C207.405 464.999 206.797 465.065 206.2 464.984C205.603 464.902 205.035 464.675 204.545 464.323Z" fill="#FFEAD5"/>
<path d="M255.077 443.319L255.764 439.107L137.552 408.633L138.498 412.895L205.661 462.271L255.077 443.319Z" fill="#FFEAD5"/>
<path d="M204.755 460.638L138.548 410.306C138.189 410.026 137.909 409.657 137.737 409.236C137.564 408.815 137.503 408.357 137.562 407.905C137.62 407.454 137.795 407.026 138.069 406.662C138.343 406.299 138.707 406.014 139.126 405.834L185.932 386.096C186.354 385.925 186.812 385.864 187.263 385.92C187.715 385.976 188.144 386.146 188.512 386.414L254.718 436.776C255.079 437.056 255.361 437.425 255.536 437.847C255.71 438.269 255.771 438.73 255.713 439.183C255.655 439.636 255.479 440.065 255.203 440.43C254.927 440.794 254.561 441.079 254.141 441.258L207.334 460.987C206.912 461.167 206.45 461.229 205.996 461.168C205.542 461.106 205.113 460.923 204.755 460.638Z" fill="#FDDCAB"/>
<path d="M206.497 459.214C206.399 459.237 206.296 459.239 206.197 459.22C206.098 459.201 206.003 459.162 205.92 459.104L139.703 408.742C139.611 408.665 139.54 408.567 139.495 408.456C139.45 408.345 139.432 408.224 139.444 408.105C139.452 407.986 139.496 407.872 139.571 407.78C139.646 407.687 139.748 407.62 139.862 407.587L186.669 387.849C186.719 387.849 186.719 387.849 186.769 387.789C186.867 387.765 186.97 387.763 187.069 387.782C187.169 387.8 187.263 387.84 187.346 387.898L253.563 438.27C253.654 438.346 253.725 438.443 253.77 438.552C253.815 438.661 253.833 438.78 253.822 438.898C253.816 439.018 253.773 439.134 253.698 439.229C253.623 439.324 253.52 439.392 253.404 439.426L206.597 459.164C206.597 459.214 206.547 459.214 206.497 459.214Z" fill="#FB6514"/>
<path d="M241.005 428.69C234.591 430.841 224.901 432.903 214.743 429.845C205.013 426.947 200.383 421.002 193.959 416.162C185.743 409.947 171.9 403.424 147.849 404.111C160.856 398.634 173.852 393.216 186.848 387.739C204.881 401.456 222.933 415.106 241.005 428.69Z" fill="#FB6514"/>
<path d="M481.014 246.273L475.487 240.746C471.383 236.64 466.723 233.13 461.644 230.319C457.512 273.486 439.995 314.284 411.541 347.007C424.811 352.945 439.741 354.049 453.741 350.127C467.74 346.205 479.924 337.505 488.177 325.537C496.431 313.569 500.234 299.089 498.925 284.61C497.617 270.131 491.28 256.567 481.014 246.273Z" fill="#FEB273"/>
<path d="M387.6 328.743C376.991 318.144 370.569 304.068 369.518 289.109C368.467 274.15 372.857 259.314 381.88 247.336C390.903 235.358 403.951 227.044 418.619 223.926C433.288 220.809 448.589 223.096 461.704 230.369C462.341 223.686 462.699 216.954 462.699 210.112C462.757 176.645 454.739 143.657 439.326 113.949C423.893 84.0935 401.49 58.3979 374.016 39.0404C346.542 19.6828 314.806 7.23392 281.498 2.7486C281.499 2.74128 281.499 2.73372 281.497 2.72648C281.495 2.71923 281.492 2.71249 281.487 2.70676C281.482 2.70102 281.476 2.69643 281.47 2.69333C281.463 2.69023 281.455 2.6887 281.448 2.68885C272.166 1.43563 262.809 0.820058 253.444 0.846456C218.4 0.836021 183.914 9.62852 153.153 26.4168C122.392 43.2052 96.3413 67.4514 77.3914 96.93C58.4416 126.409 47.2 160.175 44.6987 195.13C42.1974 230.084 48.5165 265.107 63.0759 296.984C77.6353 328.86 99.9685 356.569 128.026 377.566C156.083 398.563 188.965 412.176 223.653 417.156C258.341 422.135 293.725 418.322 326.556 406.065C359.386 393.808 388.612 373.501 411.551 347.007C404.651 343.9 398.375 339.564 393.027 334.21L387.6 328.743Z" fill="#C4320A"/>
<path d="M387.6 240.796C375.948 252.464 369.404 268.28 369.404 284.769C369.404 301.259 375.948 317.074 387.6 328.743L393.127 334.27C398.463 339.634 404.742 343.969 411.65 347.057C440.065 314.307 457.58 273.525 461.763 230.369C449.948 223.809 436.317 221.278 422.935 223.16C409.553 225.041 397.148 231.233 387.6 240.796Z" fill="#FB6514"/>
<path d="M439.286 113.9C396.602 121.478 375.131 112.107 363.39 102.009C347.396 88.1659 353.968 69.9511 334.23 52.9513C324.022 44.1676 311.972 40.2139 287.812 32.3265C263.233 24.2697 246.811 22.4771 244.232 12.588C242.997 7.79775 245.447 3.05732 247.498 -5.41713e-05C267.655 -0.159396 322.19 2.05147 374.703 39.5765C401.751 58.9547 423.872 84.412 439.286 113.9Z" fill="#FB6514"/>
<path d="M214.972 261.162C206.547 277.166 206.179 282.743 201.757 294.633C201.757 294.633 199.765 299.902 196.658 306.843C189.498 322.897 179.081 346.161 157.818 366.596C151.26 372.89 144.098 378.524 136.437 383.417C131.696 380.2 126.647 376.525 121.498 372.313C116.977 368.628 112.924 364.993 109.179 361.467C105.183 347.317 102.575 332.812 101.391 318.156C97.7663 272.943 109.129 242.051 95.1869 233.307C91.6615 231.096 90.6058 232.888 72.3413 230.727C63.1276 229.65 53.9763 228.095 44.9245 226.067C43.2558 204.483 44.9355 182.772 49.9039 161.702C52.4656 150.863 55.8994 140.249 60.1715 129.963C66.4699 122.305 73.93 115.682 82.2802 110.334C94.0505 102.786 107.319 97.8829 121.17 95.9637C136.745 92.9063 156.902 91.7511 170.964 103.174C190.593 119.178 179.28 144.274 200.841 166.383C223.527 189.537 253.623 179.907 258.214 195.493C262.396 209.903 237.021 219.265 214.972 261.162Z" fill="#FB6514"/>
<path d="M339.239 229.164V359.217L303.606 369.176L277.395 362.334V245.745L339.239 229.164Z" fill="#FEB273"/>
<path d="M365.491 352.166V380.001L303.646 396.583V368.698L365.491 352.166Z" fill="#FEB273"/>
<path d="M365.491 352.166L303.656 368.737L277.444 361.846L339.289 345.264L365.491 352.166Z" fill="#C4320A"/>
<path d="M391.653 386.843V414.728L329.908 431.309V403.424L339.219 400.954H339.269L391.653 386.843Z" fill="#FEB273"/>
<path d="M339.179 400.954L329.858 403.424V431.309L303.596 424.408L277.385 417.566V361.846L303.596 368.738V396.622L329.858 403.464L339.179 400.954Z" fill="#FFEAD5"/>
<path d="M391.653 386.843L339.229 400.954H339.179L329.858 403.424L303.596 396.583L365.491 380.001L391.653 386.843Z" fill="#C4320A"/>
<path d="M204.018 325.157L203.231 323.793C203.445 324.174 203.566 324.601 203.586 325.037C203.605 325.474 203.522 325.91 203.343 326.309C203.164 326.708 202.894 327.059 202.554 327.335C202.215 327.61 201.816 327.803 201.388 327.896L119.178 345.742L66.2365 357.215C65.8586 357.295 65.4687 357.299 65.0893 357.227C64.7098 357.155 64.3484 357.009 64.0256 356.797L60.9683 359.844C61.5833 360.829 62.4871 361.6 63.5563 362.053C64.6256 362.506 65.8084 362.618 66.9436 362.374L119.048 351.06L200.253 333.423C201.119 333.244 201.931 332.862 202.621 332.309C203.312 331.756 203.861 331.048 204.226 330.241C204.59 329.435 204.758 328.554 204.717 327.671C204.675 326.787 204.426 325.926 203.988 325.157H204.018Z" fill="#FEB273"/>
<path d="M88.0265 332.846L64.0256 356.747C64.3432 356.97 64.7047 357.122 65.086 357.195C65.4672 357.267 65.8594 357.257 66.2365 357.165L119.188 345.693L201.398 327.846C201.827 327.755 202.228 327.564 202.569 327.289C202.91 327.013 203.18 326.661 203.359 326.261C203.538 325.861 203.619 325.424 203.597 324.987C203.575 324.549 203.449 324.123 203.231 323.743L170.187 264.378C169.897 263.848 169.441 263.426 168.889 263.178C168.337 262.93 167.72 262.869 167.13 263.004L92.9164 279.167L62.0438 285.899L87.9967 311.842C89.3804 313.218 90.4791 314.853 91.2298 316.654C91.9804 318.455 92.3682 320.387 92.371 322.338C92.3738 324.289 91.9914 326.222 91.2459 328.025C90.5004 329.828 89.4064 331.466 88.0265 332.846Z" fill="#FDDCAB"/>
<path d="M27.9745 300.579C27.3251 299.412 27.1368 298.044 27.4467 296.745L27.4965 296.426C27.7238 295.436 28.2333 294.532 28.9632 293.825C29.6931 293.118 30.6123 292.638 31.6095 292.442H31.7091C31.8186 292.383 31.8684 292.333 31.978 292.283L62.0239 285.82L55.0527 278.928C52.264 276.15 48.4877 274.589 44.551 274.589C40.6143 274.589 36.8381 276.15 34.0494 278.928L4.34207 308.636C1.56346 311.424 0.0032959 315.201 0.0032959 319.137C0.0032959 323.074 1.56346 326.85 4.34207 329.639L37.2064 362.583C39.9951 365.361 43.7713 366.922 47.708 366.922C51.6447 366.922 55.4209 365.361 58.2096 362.583L60.8886 359.894C60.8388 359.794 60.789 359.745 60.7292 359.635L27.9745 300.579Z" fill="#FDDCAB"/>
<path d="M63.1791 355.851L30.1356 296.476C29.9416 296.117 29.8286 295.72 29.8043 295.312C29.78 294.905 29.8451 294.497 29.995 294.118C30.1449 293.738 30.376 293.396 30.6721 293.115C30.9682 292.835 31.3221 292.622 31.7091 292.492H31.6095C30.6198 292.705 29.7096 293.191 28.9825 293.895C28.2554 294.599 27.7405 295.493 27.4965 296.476L27.4467 296.795C27.1368 298.094 27.3251 299.462 27.9745 300.629L60.8388 359.685C60.8388 359.794 60.9384 359.844 60.9882 359.954L64.0456 356.896C63.6714 356.628 63.373 356.268 63.1791 355.851Z" fill="#FEF6FB"/>
<path d="M31.7091 292.482C31.3221 292.612 30.9682 292.825 30.6721 293.105C30.376 293.386 30.1449 293.728 29.995 294.108C29.8451 294.487 29.78 294.895 29.8043 295.302C29.8286 295.71 29.9416 296.107 30.1356 296.466L63.1891 355.841C63.4103 356.203 63.6934 356.523 64.0256 356.787L88.0265 332.786C90.8051 329.997 92.3653 326.221 92.3653 322.284C92.3653 318.348 90.8051 314.571 88.0265 311.783L62.0836 285.82L32.0277 292.343C31.9182 292.373 31.8684 292.482 31.7091 292.482Z" fill="#FB6514"/>
<path d="M70.23 340.594C69.5606 340.595 68.9029 340.418 68.3251 340.08C67.7473 339.742 67.2703 339.256 66.9436 338.672L33.9498 279.297C33.6647 278.772 33.508 278.187 33.4924 277.59C33.4769 276.992 33.6029 276.4 33.8602 275.861C34.1022 275.353 34.4596 274.908 34.904 274.562C35.3484 274.216 35.8673 273.979 36.4196 273.869L171.562 244.51C172.345 244.338 173.163 244.422 173.895 244.75C174.626 245.078 175.233 245.633 175.625 246.333L208.668 305.688C208.948 306.207 209.103 306.784 209.122 307.373C209.141 307.962 209.023 308.548 208.778 309.084C208.539 309.616 208.178 310.085 207.725 310.454C207.272 310.822 206.739 311.079 206.169 311.205L71.0068 340.594C70.7484 340.618 70.4883 340.618 70.23 340.594ZM172.368 246.203C172.231 246.205 172.094 246.221 171.96 246.253L36.8478 275.652C36.5716 275.705 36.3119 275.823 36.0902 275.996C35.8686 276.169 35.6913 276.392 35.5731 276.648C35.441 276.919 35.3724 277.217 35.3724 277.519C35.3724 277.821 35.441 278.119 35.5731 278.39L68.5669 337.805C68.7706 338.153 69.0779 338.428 69.4458 338.592C69.8136 338.756 70.2236 338.802 70.6184 338.721L205.77 309.353C206.06 309.286 206.33 309.154 206.56 308.966C206.79 308.777 206.973 308.538 207.095 308.267C207.227 307.996 207.296 307.698 207.296 307.396C207.296 307.094 207.227 306.796 207.095 306.524L174.051 247.179C173.884 246.883 173.639 246.638 173.342 246.471C173.045 246.304 172.708 246.222 172.368 246.233V246.203Z" fill="#FB6514"/>
<path d="M451.237 260.106L491.969 234.273L454.394 251.641L451.237 260.106Z" fill="#FEB273"/>
<path d="M431.707 243.425L491.969 234.273L447.861 249.848L431.707 243.425Z" fill="#FEB273"/>
<path d="M491.969 234.273L447.861 249.848L451.237 260.106L454.394 251.641L491.969 234.273Z" fill="#FDDCAB"/>
<path d="M491.969 234.273L480.337 260.793L454.394 251.641L491.969 234.273Z" fill="#FEB273"/>
<path d="M330.764 297.263C317.668 297.263 313.446 293.408 313.117 293.08L314.402 291.795C314.571 291.945 331.332 306.614 404.181 275.243C415.793 270.264 442.373 255.794 442.632 255.644L443.519 257.268C443.25 257.417 416.63 271.877 404.918 276.946C367.154 293.169 344.249 297.263 330.764 297.263Z" fill="#FEF6FB"/>
<path d="M438.35 263.293L436.956 262.078L437.533 261.401C438.629 260.156 439.744 258.881 440.84 257.606L438.788 257.845L434.496 258.343L434.297 256.501C435.711 256.351 437.135 256.182 438.569 256.013L442.981 255.495L445.291 255.246L443.788 257.019C442.184 258.901 440.541 260.783 438.928 262.626L438.35 263.293Z" fill="#FEF6FB"/>
<path d="M516.866 39.1085C516.867 39.6239 516.814 40.138 516.706 40.6422L499.288 124.167L498.97 125.641C498.542 127.796 497.346 129.721 495.604 131.059L339.13 139.424L335.286 135.949L340.813 132.632L508.022 31.8485L508.968 31.7389C510.337 31.6428 511.706 31.9267 512.924 32.5594C514.142 33.192 515.161 34.1488 515.87 35.3241C516.538 36.4722 516.882 37.7802 516.866 39.1085Z" fill="#FEB273"/>
<path d="M340.813 135.441L490.973 124.745C491.868 124.67 492.716 124.313 493.396 123.726C494.075 123.14 494.552 122.353 494.757 121.478L512.394 36.8279C512.518 36.1997 512.495 35.5517 512.328 34.9336C512.162 34.3156 511.855 33.744 511.433 33.263C511.011 32.7819 510.483 32.4042 509.892 32.159C509.301 31.9138 508.661 31.8075 508.022 31.8485L357.862 42.5343C356.967 42.6095 356.119 42.966 355.439 43.5528C354.76 44.1396 354.283 44.9265 354.078 45.8009L336.441 130.451C336.314 131.08 336.333 131.73 336.499 132.351C336.664 132.971 336.97 133.545 337.393 134.027C337.816 134.51 338.344 134.889 338.937 135.134C339.531 135.379 340.172 135.484 340.813 135.441Z" fill="#FEB273"/>
<path d="M499.288 124.108L498.94 125.581C498.513 127.739 497.317 129.668 495.574 131.009C494.061 132.194 492.223 132.888 490.305 133.001L284.575 143.956C283.764 144 282.953 143.858 282.206 143.539C281.459 143.221 280.795 142.735 280.266 142.119C279.736 141.503 279.355 140.773 279.153 139.986C278.95 139.2 278.931 138.377 279.098 137.582L279.466 135.74L340.813 132.453L499.288 124.108Z" fill="#C4320A"/>
<path d="M376.814 41.0604C394.442 54.0384 409.958 69.6623 422.814 87.3792C431.77 99.7486 439.391 113.031 445.55 127.006C409.24 128.957 372.943 130.886 336.66 132.792C336.546 132.471 336.476 132.136 336.451 131.796C336.408 131.357 336.425 130.915 336.501 130.481C342.396 102.271 348.292 74.0542 354.188 45.8307C354.376 44.9389 354.847 44.1319 355.532 43.5302C356.145 43.0022 356.894 42.657 357.693 42.5343C359.605 42.1659 366.925 41.5882 376.814 41.0604Z" fill="#FEB273"/>
<path d="M284.605 143.956C284.605 142.581 318.346 140.111 448.867 135.222C449.763 137.582 450.659 140.062 451.556 142.641C452.452 145.22 453.179 147.531 453.866 149.851C438.021 149.323 414.08 148.636 384.871 147.8C316.603 145.957 284.655 145.4 284.605 143.956Z" fill="#FB6514"/>
<path d="M470.547 327.587C470.546 324.555 469.522 321.611 467.641 319.233C465.759 316.855 463.131 315.181 460.18 314.481C460.02 309.569 457.937 304.916 454.379 301.524C450.821 298.133 446.073 296.275 441.158 296.351C436.244 296.427 431.556 298.43 428.104 301.929C424.652 305.429 422.713 310.144 422.705 315.059C422.705 315.477 422.764 315.896 422.764 316.324C422.276 316.256 421.784 316.22 421.29 316.214C418.089 316.211 414.991 317.347 412.551 319.42C410.111 321.493 408.489 324.367 407.975 327.528H470.547V327.587Z" fill="#FEF6FB"/>
<path d="M144.025 32.9539C144.028 30.827 144.745 28.7627 146.062 27.0922C147.378 25.4217 149.218 24.2419 151.285 23.742C151.415 20.3066 152.883 17.0582 155.376 14.6909C157.869 12.3237 161.188 11.0254 164.626 11.0735C168.063 11.1216 171.346 12.5124 173.771 14.9485C176.197 17.3846 177.573 20.6728 177.607 24.1104C177.616 24.4104 177.596 24.7107 177.547 25.0067C177.897 24.9641 178.25 24.9475 178.602 24.9569C180.855 24.9601 183.033 25.7626 184.749 27.2216C186.466 28.6806 187.608 30.7014 187.974 32.924H144.025V32.9539Z" fill="#FB6514"/>
<path d="M203.689 41.9368H158.655V41.0604H157.729V40.1343C157.912 38.0884 158.701 36.1435 159.994 34.5473C161.287 32.9512 163.026 31.7759 164.989 31.1713C165.29 27.5629 166.968 24.2089 169.675 21.8047C172.383 19.4006 175.912 18.1309 179.53 18.259C183.149 18.387 186.579 19.9031 189.11 22.4927C191.641 25.0822 193.078 28.5466 193.123 32.1672H193.202C195.671 32.1495 198.065 33.0119 199.956 34.5996C201.847 36.1874 203.11 38.3967 203.52 40.8314L203.689 41.9368ZM159.631 40.0845H201.458C200.932 38.309 199.841 36.7535 198.351 35.6536C196.862 34.5538 195.054 33.9696 193.202 33.9896C192.897 33.9675 192.591 33.9675 192.286 33.9896L190.991 34.1888L191.23 32.8942C191.257 32.6559 191.257 32.4154 191.23 32.1771C191.01 29.1181 189.649 26.2534 187.417 24.1501C185.185 22.0467 182.244 20.858 179.178 20.8192C176.111 20.7804 173.141 21.8943 170.857 23.9405C168.572 25.9867 167.139 28.816 166.841 31.8684V32.5854L166.144 32.7448C164.434 33.1468 162.89 34.068 161.724 35.3821C160.558 36.6961 159.827 38.3386 159.631 40.0845Z" fill="#FEF6FB"/>
<path d="M394.372 93.9022L368.11 100.326L376.744 103.692L367.054 110.115L369.216 113.163L378.896 106.739L379.164 115.642L394.372 93.9022Z" fill="#C4320A"/>
<path d="M378.338 118.511L378.039 108.482L368.996 114.457L365.76 109.896L374.723 103.921L365.013 100.137L396.563 92.4184L378.338 118.511ZM379.792 105.096L380.021 112.874L392.22 95.4359L371.197 100.575L378.766 103.562L368.379 110.444L369.464 111.978L379.792 105.096Z" fill="#FEF6FB"/>
<path d="M102.337 113.003H71.4649L59.2852 89.1618L93.2848 96.0036L102.337 113.003Z" fill="#FEB273"/>
<path d="M61.8646 82.8977L59.2952 89.1618L71.445 113.003H102.318L104.887 106.799L93.2948 96.0036L61.8646 82.8977Z" fill="#FEB273"/>
<path d="M104.927 106.799H74.0542L61.9044 82.8977H92.7769L104.927 106.799Z" fill="#FEB273"/>
<path d="M81.603 95.6052H74.1339L70.7678 89.2913H78.2369L81.603 95.6052Z" fill="#FEF6FB"/>
<path d="M94.7687 95.6052H87.2398L83.8737 89.2913H91.3926L94.7687 95.6052Z" fill="#FEF6FB"/>
<path d="M108.821 142.79H96.2924C87.5485 142.79 77.2411 136.815 73.2874 129.426L63.9758 111.898H108.233L117.515 129.465C121.498 136.845 117.604 142.79 108.821 142.79Z" fill="#FEB273"/>
<path d="M66.7244 105.006L63.8862 111.898L73.2475 129.426L118.511 137.691L121.498 130.431L66.7244 105.006Z" fill="#FEB273"/>
<path d="M111.659 135.949H99.0809C90.3469 135.949 80.0296 129.973 76.0858 122.584L66.7245 105.056H110.992L120.303 122.584C124.347 129.953 120.502 135.949 111.659 135.949Z" fill="#FEB273"/>
<path d="M402.867 185.375L401.492 191.688C395.11 190.96 388.655 191.191 382.341 192.376C376.95 193.304 371.817 195.368 367.283 198.431L357.862 194.268C362.762 190.533 369.395 187.685 377.501 186.062C385.866 184.484 394.429 184.252 402.867 185.375ZM384.941 195.851C380.498 196.638 376.257 198.301 372.462 200.741L381.993 204.954C384.427 203.583 387.078 202.64 389.83 202.165C392.972 201.586 396.17 201.372 399.361 201.528L400.725 195.164C395.468 194.644 390.163 194.875 384.97 195.851H384.941ZM392.26 205.422C390.398 205.773 388.592 206.376 386.892 207.214L397.1 211.746L398.574 204.904C396.467 204.836 394.358 205.01 392.29 205.422H392.26Z" fill="#C4320A"/>
<path d="M397.797 213.05L384.781 207.274L386.494 206.388C388.27 205.513 390.156 204.883 392.101 204.516C394.247 204.081 396.436 203.9 398.624 203.978H399.739L397.797 213.05ZM389.223 207.224L396.463 210.431L397.459 205.82C395.786 205.825 394.118 205.995 392.479 206.328C391.374 206.549 390.286 206.848 389.223 207.224ZM382.033 205.989L370.54 200.91L371.924 199.974C375.832 197.45 380.208 195.74 384.791 194.945C390.061 193.947 395.447 193.708 400.785 194.238L401.831 194.328L400.078 202.484H399.291C396.174 202.33 393.049 202.537 389.98 203.101C387.327 203.544 384.77 204.44 382.421 205.75L382.033 205.989ZM374.454 200.592L381.953 203.918C384.367 202.623 386.973 201.722 389.671 201.249C392.627 200.709 395.631 200.482 398.634 200.572L399.63 196.001C394.808 195.602 389.954 195.856 385.199 196.758C381.431 197.437 377.801 198.732 374.454 200.592ZM367.483 199.486L356.139 194.507L357.384 193.561C362.543 189.577 369.335 186.809 377.412 185.175C385.871 183.572 394.532 183.337 403.066 184.478L404.062 184.608L402.299 192.724L401.472 192.635C395.183 191.922 388.822 192.15 382.6 193.312C377.311 194.188 372.271 196.188 367.821 199.178L367.483 199.486ZM359.794 194.069L367.264 197.365C371.809 194.403 376.908 192.394 382.252 191.459C388.382 190.299 394.649 190.038 400.855 190.683L401.851 186.171C393.838 185.185 385.72 185.454 377.79 186.968C371.349 188.105 365.2 190.52 359.705 194.069H359.794Z" fill="#FEF6FB"/>
<path d="M218.398 194.796L213.339 186.002H162.758L167.817 194.796C170.606 199.636 177.776 203.579 183.811 203.579C189.846 203.579 192.495 199.596 189.707 194.796H196.499C199.287 199.636 206.458 203.579 212.503 203.579C218.548 203.579 221.187 199.636 218.398 194.796Z" fill="#FEB273"/>
<path d="M183.652 156.115L162.738 185.992L167.797 194.786C170.07 198.535 173.599 201.358 177.756 202.753C179.704 203.391 181.755 203.658 183.801 203.54C189.597 203.38 200.861 203.38 212.383 203.49C215.278 203.493 218.137 202.846 220.749 201.598L263.572 180.913L254.151 156.016H183.652V156.115Z" fill="#FEB273"/>
<path d="M266.081 169.161L258.602 156.115H183.662L191.131 169.161C195.294 176.372 205.87 182.247 214.813 182.247C223.238 182.247 227.232 177.039 224.184 170.406C224.124 170.275 224.098 170.131 224.108 169.987C224.118 169.843 224.165 169.704 224.243 169.582C224.322 169.461 224.43 169.362 224.557 169.293C224.684 169.225 224.827 169.19 224.971 169.191H232.659C232.938 169.187 233.213 169.252 233.46 169.381C233.707 169.509 233.918 169.698 234.073 169.928C238.495 176.77 248.653 182.247 257.288 182.247C266.29 182.247 270.184 176.372 266.081 169.161Z" fill="#FEB273"/>
<path d="M257.337 179.847C249.291 179.847 239.411 174.43 235.707 168.006C235.502 167.641 235.204 167.337 234.844 167.123C234.484 166.91 234.074 166.796 233.655 166.791H223.607C223.194 166.792 222.788 166.9 222.431 167.106C222.073 167.312 221.775 167.608 221.568 167.964C221.36 168.321 221.25 168.726 221.248 169.139C221.245 169.552 221.351 169.958 221.555 170.317C223.029 172.846 223.288 175.167 222.342 176.85C221.236 178.742 218.498 179.837 214.863 179.837C206.816 179.837 196.937 174.42 193.232 167.996L187.765 158.466H257.238L264.02 170.297C265.494 172.826 265.763 175.147 264.817 176.83C263.651 178.792 260.972 179.847 257.337 179.847Z" fill="#FEF6FB"/>
<path d="M183.662 170.376L170.606 188.223L169.819 186.231L182.875 168.435L183.662 170.376Z" fill="#FEF6FB"/>
</g>
<defs>
<clipPath id="clip0_1_246">
<rect width="516.866" height="465" fill="white"/>
</clipPath>
</defs>
</svg>
