<svg width="328" height="332" viewBox="0 0 328 332" fill="none" xmlns="http://www.w3.org/2000/svg">
<path d="M162.029 328.664L15.6059 182.241C11.1598 177.795 11.1598 170.586 15.6059 166.139L162.029 19.7159C166.476 15.2698 173.685 15.2698 178.131 19.7159L324.554 166.139C329 170.586 329 177.795 324.554 182.241L178.131 328.664C173.685 333.11 166.476 333.11 162.029 328.664Z" fill="#FD853A"/>
<path d="M127.739 294.387L162.023 328.671C166.484 333.11 173.695 333.11 178.134 328.671L212.418 294.387H127.739Z" fill="#C4320A"/>
<path d="M101.392 248.695L52.6357 299.586C49.4743 302.886 51.8129 308.366 56.383 308.366H280.331C284.874 308.366 287.224 302.943 284.118 299.628L236.429 248.737C235.448 247.69 234.077 247.095 232.643 247.095H105.139C103.724 247.095 102.371 247.673 101.392 248.695Z" fill="#FD853A"/>
<path d="M280.333 308.36H56.3877C52.6306 308.36 50.3761 304.66 51.4578 301.518H285.252C286.333 304.672 284.079 308.36 280.333 308.36Z" fill="#FEB273"/>
<path d="M106.757 250.92L62.4129 297.608H274.141L230.917 250.92H106.757Z" fill="#FB6514"/>
<path d="M230.917 250.92L274.14 297.608H62.4129L106.757 250.92H230.917ZM231.6 249.357H230.917H106.757H106.086L105.624 249.843L61.2796 296.531L58.7724 299.171H62.4129H274.14H277.718L275.287 296.546L232.064 249.858L231.6 249.357Z" fill="#C4320A"/>
<path d="M176.925 297.617H62.4218L106.752 250.911H124.363L131.512 251.265C131.512 251.265 116.672 296.074 176.925 297.617Z" fill="#FB6514"/>
<path d="M160.572 213.04L165.429 267.864" stroke="white" stroke-width="0.72" stroke-miterlimit="10"/>
<path d="M186.197 213.109L178.753 268.816" stroke="white" stroke-width="0.72" stroke-miterlimit="10"/>
<path d="M172.155 220.568L172.726 271.988" stroke="white" stroke-width="0.72" stroke-miterlimit="10"/>
<path d="M317.23 99.4352C317.23 116.963 309.872 132.781 298.055 143.911C298.785 143.223 299.493 142.514 300.181 141.785L213.564 55.1678C224.569 44.6222 239.491 38.1401 255.935 38.1401C289.782 38.1401 317.23 65.5887 317.23 99.4352Z" fill="#C4320A"/>
<path d="M317.23 99.4348C317.23 100.873 317.188 102.311 317.063 103.728H262.125L213.564 55.1678C224.569 44.6222 239.491 38.1401 255.935 38.1401C289.782 38.1401 317.23 65.5883 317.23 99.4348Z" fill="#FD853A"/>
<path d="M300.191 141.785C289.083 153.456 273.368 160.73 255.944 160.73C222.098 160.73 194.649 133.282 194.649 99.4354C194.649 82.0327 201.903 66.3182 213.574 55.168L300.191 141.785Z" fill="white"/>
<path d="M262.151 103.736H78.0078L155.131 26.6246C163.385 18.3589 176.774 18.3589 185.039 26.6246L262.151 103.736Z" fill="#FDDCAB"/>
<path d="M225.258 76.4181H225.299C225.278 76.293 225.258 76.1682 225.258 76.0431C225.237 75.939 225.237 75.8139 225.237 75.668C225.237 75.5222 225.237 75.3763 225.258 75.2511C225.466 73.146 227.238 71.5207 229.384 71.5207C230.364 71.5207 231.26 71.875 231.968 72.4378C233.011 70.3326 235.157 68.8735 237.658 68.8735C238.325 68.8735 238.971 68.9572 239.575 69.1657C240.701 65.0598 244.473 62.0376 248.933 62.0376C253.372 62.0376 257.103 64.9972 258.291 69.0405C258.771 68.9154 259.25 68.8735 259.75 68.8735C262.98 68.8735 267.149 71.2286 267.524 74.3548L268.024 77.273H225.258V76.4181Z" fill="white"/>
<path d="M62.3655 102.835H62.4069C62.3862 102.709 62.3655 102.585 62.3655 102.46C62.3447 102.356 62.3447 102.23 62.3447 102.085C62.3447 101.939 62.3447 101.793 62.3655 101.668C62.5739 99.5625 64.3455 97.9372 66.492 97.9372C67.4717 97.9372 68.3676 98.2915 69.0762 98.8543C70.1185 96.7491 72.265 95.29 74.766 95.29C75.4327 95.29 76.0792 95.3737 76.6834 95.5822C77.8089 91.4763 81.5812 88.4541 86.0413 88.4541C90.4804 88.4541 94.2112 91.4137 95.3993 95.457C95.8787 95.3319 96.3578 95.29 96.858 95.29C100.088 95.29 104.257 97.6451 104.632 100.771L105.132 103.689H62.3655V102.835Z" fill="#FB6514"/>
<path d="M105.126 103.687H78.0529L91.5581 90.1816C93.3711 91.4112 94.7469 93.2871 95.393 95.4545C95.8724 95.3293 96.3519 95.2879 96.8521 95.2879C100.082 95.2879 104.251 97.6429 104.626 100.769L105.126 103.687Z" fill="#FD853A"/>
<path d="M176.925 297.617H62.4218L106.752 250.911H124.363L131.765 250.919C131.765 250.919 116.672 296.074 176.925 297.617Z" fill="#C4320A"/>
<path d="M220.579 271.887C220.579 271.887 221.411 273.769 221.248 276.182" stroke="white" stroke-width="0.72" stroke-linecap="round" stroke-linejoin="round"/>
<path d="M249.058 196.903L249.136 221.511C249.139 222.431 250.136 223.004 250.932 222.544L265.383 214.21C266.12 213.785 266.577 213 266.581 212.149L266.716 186.518C266.721 185.594 265.721 185.012 264.92 185.474L251.022 193.489C249.803 194.192 249.053 195.495 249.058 196.903Z" stroke="#C4320A" stroke-width="0.72" stroke-miterlimit="10"/>
<path d="M260.393 82.1014L285.002 82.0227C285.921 82.0196 286.494 81.0236 286.035 80.2269L277.701 65.7761C277.276 65.0389 276.491 64.5825 275.639 64.5778L250.009 64.4429C249.084 64.4378 248.502 65.4378 248.964 66.2387L256.979 80.137C257.683 81.3564 258.985 82.106 260.393 82.1014Z" stroke="#C4320A" stroke-width="0.72" stroke-miterlimit="10"/>
<path d="M86.5178 175.908C95.8781 167.554 98.6879 155.427 92.7933 148.822C86.8987 142.218 74.5318 143.635 65.1715 151.989C55.8112 160.343 53.0013 172.469 58.896 179.074C64.7906 185.679 77.1575 184.261 86.5178 175.908Z" stroke="white" stroke-width="0.72" stroke-miterlimit="10"/>
<path d="M225.252 270.397L220.16 267.726L252.59 205.901L257.683 208.573L225.252 270.397Z" fill="white"/>
<path d="M220.16 267.726L220.085 273.566L225.252 270.397L220.16 267.726Z" fill="white"/>
<path d="M118.261 283.572L110.468 277.251C110.158 276.999 109.865 276.74 109.577 276.463C108.532 275.454 105.942 272.935 105.616 272.422C102.38 267.274 102.973 261.417 106.938 259.333C110.879 257.249 116.735 259.708 119.97 264.835C121.178 266.773 121.53 269.204 121.69 271.101C121.758 272.018 118.261 283.572 118.261 283.572Z" stroke="white" stroke-width="0.72" stroke-linecap="round" stroke-linejoin="round"/>
<path d="M108.73 270.777C110.568 273.687 113.877 275.086 116.122 273.9C117.525 273.159 118.181 271.584 118.026 269.796C117.934 268.724 117.55 267.575 116.861 266.483C115.023 263.573 111.714 262.174 109.469 263.36C107.224 264.546 106.893 267.867 108.73 270.777Z" stroke="white" stroke-width="0.72" stroke-linecap="round" stroke-linejoin="round"/>
<path d="M8.2157 125.095L7.47814 128.456C7.34557 129.06 7.34244 129.684 7.46993 130.289L13.837 160.533C14.0802 161.689 15.0469 162.552 16.2229 162.666L82.0376 168.982C83.2761 169.101 84.4696 168.482 85.0868 167.402L85.6808 166.362L75.8969 156.847L8.2157 125.095Z" fill="#C4320A"/>
<path d="M8.3173 126.139L15.8372 160.158C15.9499 160.667 16.3808 161.045 16.9009 161.089L84.6893 166.83C85.482 166.898 86.1171 166.185 85.9592 165.405L79.1565 131.851C79.0517 131.334 78.6203 130.948 78.0951 130.9L9.58946 124.694C8.7858 124.621 8.14327 125.351 8.3173 126.139Z" fill="#FDDCAB"/>
<path d="M85.9544 165.416C86.119 166.193 85.4835 166.899 84.683 166.829L77.1975 166.193L16.911 161.085C16.3697 161.038 15.9458 160.661 15.8281 160.167L8.31875 126.128C8.15411 125.351 8.7896 124.621 9.59012 124.692L34.6602 126.975L78.0918 130.906C78.6096 130.953 79.057 131.33 79.1513 131.848L85.9544 165.416Z" fill="#FD853A"/>
<path d="M85.9544 165.416C86.1191 166.193 85.4836 166.899 84.6831 166.829L77.1976 166.193C73.3842 155.977 53.5631 149.15 53.5631 149.15C43.441 146.843 37.038 133.096 34.6603 126.975L78.0919 130.907C78.6097 130.953 79.0571 131.33 79.1514 131.848L85.9544 165.416Z" fill="#FEB273"/>
<path d="M17.688 126.83L24.1798 158.972" stroke="#FFEAD5" stroke-width="0.72" stroke-linecap="round" stroke-linejoin="round"/>
<path d="M23.7043 127.463L30.1961 159.606" stroke="#FFEAD5" stroke-width="0.72" stroke-linecap="round" stroke-linejoin="round"/>
<path d="M29.7214 128.255L36.2132 160.397" stroke="#FFEAD5" stroke-width="0.72" stroke-linecap="round" stroke-linejoin="round"/>
<path d="M35.8967 128.73L42.3885 160.872" stroke="#FFEAD5" stroke-width="0.72" stroke-linecap="round" stroke-linejoin="round"/>
<path d="M41.5967 129.046L48.0885 161.189" stroke="#FFEAD5" stroke-width="0.72" stroke-linecap="round" stroke-linejoin="round"/>
<path d="M47.7718 130.155L54.2636 162.297" stroke="#FFEAD5" stroke-width="0.72" stroke-linecap="round" stroke-linejoin="round"/>
<path d="M53.4715 130.472L59.9633 162.614" stroke="#FFEAD5" stroke-width="0.72" stroke-linecap="round" stroke-linejoin="round"/>
<path d="M59.4886 131.105L65.9804 163.248" stroke="#FFEAD5" stroke-width="0.72" stroke-linecap="round" stroke-linejoin="round"/>
<path d="M65.5056 131.58L71.9974 163.722" stroke="#FFEAD5" stroke-width="0.72" stroke-linecap="round" stroke-linejoin="round"/>
<path d="M71.364 132.372L77.8557 164.514" stroke="#FFEAD5" stroke-width="0.72" stroke-linecap="round" stroke-linejoin="round"/>
<path d="M12.1458 129.838L77.0637 135.697" stroke="#FFEAD5" stroke-width="0.72" stroke-linecap="round" stroke-linejoin="round"/>
<path d="M13.2543 134.905L78.1722 140.764" stroke="#FFEAD5" stroke-width="0.72" stroke-linecap="round" stroke-linejoin="round"/>
<path d="M14.3627 139.972L79.2807 145.83" stroke="#FFEAD5" stroke-width="0.72" stroke-linecap="round" stroke-linejoin="round"/>
<path d="M15.313 144.88L80.231 150.739" stroke="#FFEAD5" stroke-width="0.72" stroke-linecap="round" stroke-linejoin="round"/>
<path d="M15.9457 149.947L80.8637 155.806" stroke="#FFEAD5" stroke-width="0.72" stroke-linecap="round" stroke-linejoin="round"/>
<path d="M17.5296 155.331L82.4475 161.189" stroke="#FFEAD5" stroke-width="0.72" stroke-linecap="round" stroke-linejoin="round"/>
<path d="M139.003 132.932L116.108 154.48C116.108 154.48 105.671 199.596 115.771 227.205L127.541 213.146L152.134 183.772L139.003 132.932Z" fill="black"/>
<path d="M201.158 132.932L224.053 154.48C224.053 154.48 234.49 199.596 224.389 227.205L188.027 183.772L201.158 132.932Z" fill="black"/>
<path d="M148.148 209.202L147.027 208.189C145.236 206.568 144.01 204.427 143.519 202.062C138.966 180.171 118.175 65.7453 165.955 1.79294C167.719 -0.567954 171.245 -0.592993 173.105 1.69244C185.841 17.34 225.023 77.7364 196.637 202.097C196.097 204.461 194.799 206.59 192.961 208.17L191.539 209.393C189.474 211.169 186.84 212.145 184.116 212.145H155.786C152.963 212.145 150.241 211.097 148.148 209.202Z" fill="#C4320A"/>
<path d="M195.185 205.567C194.58 206.547 193.83 207.422 192.955 208.172L191.538 209.402C189.474 211.173 186.848 212.153 184.118 212.153H155.795C152.96 212.153 150.251 211.09 148.146 209.193L147.02 208.193C146.166 207.422 145.457 206.547 144.895 205.567H195.185Z" fill="white"/>
<path d="M191.318 33.3195H148.863C153.223 22.0027 158.825 11.3346 165.952 1.79403C167.717 -0.562571 171.246 -0.596984 173.102 1.69157C177.382 6.94015 184.635 17.2437 191.318 33.3195Z" fill="#FD853A"/>
<path d="M187.246 88.1882C187.246 97.2055 179.936 104.515 170.919 104.515C161.902 104.515 154.592 97.2055 154.592 88.1882C154.592 79.1709 161.902 71.8613 170.919 71.8613C179.936 71.8613 187.246 79.1709 187.246 88.1882Z" fill="white"/>
<path d="M187.246 88.1883C187.246 95.8677 181.021 102.093 173.341 102.093C165.662 102.093 159.436 95.8677 159.436 88.1883C159.436 80.5088 165.662 74.2837 173.341 74.2837C181.021 74.2837 187.246 80.5088 187.246 88.1883Z" fill="#FDDCAB"/>
<path d="M206.699 124.195C206.676 127.497 206.585 128.579 206.438 132.028H135.315C135.212 128.715 135.144 127.611 135.121 124.195H206.699Z" fill="#FB6514"/>
<path d="M171.139 160.043C171.139 160.043 163.583 178.629 170.935 220.292C170.935 220.292 171.605 216.156 172.382 210.029C172.895 205.977 173.455 201.055 173.898 195.883C174.66 186.987 175.075 177.352 174.314 170.14C173.822 165.478 172.839 161.828 171.139 160.043Z" fill="#FD853A"/>
<path d="M135.121 132.089H206.699" stroke="white" stroke-width="0.72" stroke-miterlimit="10"/>
<path d="M135.121 124.196H206.699" stroke="white" stroke-width="0.72" stroke-miterlimit="10"/>
<path d="M34.7543 200.892C13.8828 200.892 7.88613 195.198 6.41492 188.937" stroke="#FB6514" stroke-width="0.72" stroke-miterlimit="10"/>
<path d="M10.8976 174.205L13.8935 181.052L28.5741 166.458L36.4196 160.229L11.648 170.794L10.8976 174.205Z" fill="#FD853A"/>
<path d="M15.5264 174.529L13.8936 181.052L26.9526 169.905L15.5264 174.529Z" fill="#C4320A"/>
<path d="M15.5264 174.529L36.4197 160.229L32.3827 177.554L15.5264 174.529Z" fill="#FDDCAB"/>
<path d="M0.111084 171.936L10.8973 174.205L36.4197 160.229L0.111084 171.936Z" fill="#FDDCAB"/>
</svg>
